<svg width="24" height="25" viewBox="0 0 24 25" fill="none" xmlns="http://www.w3.org/2000/svg">
<path d="M11.3 19.8C11.1167 19.6167 11.0207 19.3833 11.012 19.1C11.0033 18.8167 11.091 18.5833 11.275 18.4L16.175 13.5H5C4.71667 13.5 4.479 13.404 4.287 13.212C4.095 13.02 3.99934 12.7827 4 12.5C4 12.2167 4.096 11.979 4.288 11.787C4.48 11.595 4.71734 11.4993 5 11.5H16.175L11.275 6.59999C11.0917 6.41665 11.004 6.18332 11.012 5.89999C11.02 5.61665 11.116 5.38332 11.3 5.19999C11.4833 5.01665 11.7167 4.92499 12 4.92499C12.2833 4.92499 12.5167 5.01665 12.7 5.19999L19.3 11.8C19.4 11.8833 19.471 11.9877 19.513 12.113C19.555 12.2383 19.5757 12.3673 19.575 12.5C19.575 12.6333 19.5543 12.7583 19.513 12.875C19.4717 12.9917 19.4007 13.1 19.3 13.2L12.7 19.8C12.5167 19.9833 12.2833 20.075 12 20.075C11.7167 20.075 11.4833 19.9833 11.3 19.8Z" fill="white"/>
</svg>
