<svg width="24" height="24" viewBox="0 0 24 24" fill="none" xmlns="http://www.w3.org/2000/svg">
<rect width="24" height="24" rx="3" fill="url(#paint0_linear_269_160)"/>
<path d="M2.57812 16.4966L4.17269 19.2487C4.3312 19.5638 4.57433 19.8288 4.87491 20.0139C5.17549 20.199 5.52168 20.297 5.8748 20.2969H16.4583L14.263 16.4966H2.57812ZM21.1122 15.4817L14.949 4.71431C14.7868 4.40892 14.5444 4.15343 14.2478 3.97528C13.9512 3.79713 13.6116 3.70304 13.2654 3.70313H9.98731L19.5288 20.2821L21.038 17.6708C21.1085 17.5522 21.8168 16.5707 21.1122 15.4817ZM12.7018 13.7964L8.4187 6.3885L4.13561 13.7964H12.7018Z" fill="white"/>
<defs>
<linearGradient id="paint0_linear_269_160" x1="12" y1="0" x2="12" y2="24" gradientUnits="userSpaceOnUse">
<stop stop-color="#737070"/>
<stop offset="1"/>
</linearGradient>
</defs>
</svg>
