<svg width="30" height="30" viewBox="0 0 30 30" fill="none" xmlns="http://www.w3.org/2000/svg">
<g id="laos" clip-path="url(#clip0_1995_579)">
<g id="Group">
<path id="Vector" d="M28.5116 8.47828C26.0854 3.46084 20.9469 0 15 0C9.05309 0 3.91465 3.46084 1.4884 8.47828L15 9.78264L28.5116 8.47828Z" fill="#D80027"/>
<path id="Vector_2" d="M1.4884 21.5217C3.91465 26.5391 9.05309 30 15 30C20.9469 30 26.0854 26.5391 28.5116 21.5217L15 20.2173L1.4884 21.5217Z" fill="#D80027"/>
</g>
<path id="Vector_3" d="M28.5116 8.47827H1.4884C0.534844 10.4502 0 12.6626 0 15C0 17.3374 0.534844 19.5497 1.4884 21.5217H28.5115C29.4652 19.5497 30 17.3374 30 15C30 12.6626 29.4652 10.4502 28.5116 8.47827Z" fill="#0052B4"/>
<path id="Vector_4" d="M15 20.2174C17.8815 20.2174 20.2174 17.8815 20.2174 15C20.2174 12.1185 17.8815 9.78265 15 9.78265C12.1185 9.78265 9.78262 12.1185 9.78262 15C9.78262 17.8815 12.1185 20.2174 15 20.2174Z" fill="#F0F0F0"/>
</g>
<defs>
<clipPath id="clip0_1995_579">
<rect width="30" height="30" fill="white"/>
</clipPath>
</defs>
</svg>
