<svg width="96" height="96" viewBox="0 0 96 96" fill="none" xmlns="http://www.w3.org/2000/svg">
  <path d="M72.3 6.21582L88.992 23.6158V89.7838H26.637V89.9998H89.205V23.8348L72.3 6.21582Z" fill="#909090"/>
  <path d="M72.093 6H26.424V89.784H88.9919V23.619L72.093 6Z" fill="#F4F4F4"/>
  <path d="M25.965 10.5H6.79504V30.981H67.095V10.5H25.965Z" fill="#7A7B7C"/>
  <path d="M67.4161 30.6332H7.18506V10.1372H67.4161V30.6332Z" fill="#DD2025"/>
  <path d="M27.156 13.6021H23.235V28.0021H26.319V23.1451L27 23.1841C27.6617 23.1727 28.3172 23.0541 28.941 22.8331C29.4879 22.645 29.991 22.348 30.42 21.9601C30.8565 21.5905 31.2006 21.1241 31.425 20.5981C31.7259 19.7236 31.8333 18.7942 31.74 17.8741C31.7212 17.2168 31.606 16.5658 31.398 15.9421C31.2086 15.4918 30.9276 15.0859 30.5727 14.7501C30.2179 14.4144 29.7971 14.1563 29.337 13.9921C28.9392 13.8481 28.5282 13.7436 28.11 13.6801C27.7933 13.6312 27.4734 13.6051 27.153 13.6021M26.586 20.4841H26.319V16.0441H26.898C27.1535 16.0256 27.4099 16.0649 27.6483 16.1589C27.8866 16.2528 28.1008 16.3992 28.275 16.5871C28.6359 17.0701 28.8288 17.6581 28.824 18.2611C28.824 18.9991 28.824 19.6681 28.158 20.1391C27.6782 20.403 27.1321 20.5248 26.586 20.4841ZM37.599 13.5631C37.266 13.5631 36.942 13.5871 36.714 13.5961L36 13.6141H33.66V28.0141H36.414C37.4665 28.0429 38.5143 27.8645 39.498 27.4891C40.2897 27.175 40.9908 26.6688 41.538 26.0161C42.0701 25.3574 42.452 24.5906 42.657 23.7691C42.8927 22.8387 43.0076 21.8818 42.999 20.9221C43.0572 19.7885 42.9695 18.6522 42.738 17.5411C42.5183 16.7232 42.107 15.9693 41.538 15.3421C41.0916 14.8356 40.5451 14.427 39.933 14.1421C39.4073 13.8988 38.8544 13.7195 38.286 13.6081C38.06 13.5707 37.8311 13.5537 37.602 13.5571M37.056 25.3681H36.756V16.1761H36.795C37.4135 16.1049 38.0392 16.2165 38.595 16.4971C39.002 16.822 39.3336 17.2315 39.567 17.6971C39.8189 18.1871 39.964 18.7249 39.993 19.2751C40.02 19.9351 39.993 20.4751 39.993 20.9221C40.0052 21.437 39.9721 21.952 39.894 22.4611C39.8015 22.9838 39.6306 23.4895 39.387 23.9611C39.1113 24.3995 38.7387 24.769 38.298 25.0411C37.9279 25.2805 37.4895 25.3921 37.05 25.3591M52.29 13.6141H45V28.0141H48.084V22.3021H51.984V19.6261H48.084V16.2901H52.284V13.6141" fill="#464648"/>
  <path d="M65.3431 60.765C65.3431 60.765 74.9071 59.031 74.9071 62.298C74.9071 65.565 68.9821 64.236 65.3431 60.765ZM58.2721 61.014C56.7525 61.3498 55.2717 61.8414 53.8531 62.481L55.0531 59.781C56.253 57.081 57.4981 53.4 57.4981 53.4C58.93 55.81 60.596 58.073 62.472 60.156C61.0573 60.367 59.6552 60.6554 58.2721 61.02V61.014ZM54.4861 41.514C54.4861 38.667 55.4071 37.89 56.1241 37.89C56.8411 37.89 57.6481 38.235 57.6751 40.707C57.4415 43.1927 56.921 45.643 56.1241 48.009C55.0324 46.0225 54.4675 43.7897 54.483 41.523L54.4861 41.514ZM40.539 73.062C37.6051 71.307 46.6921 65.904 48.3391 65.73C48.3301 65.733 43.6111 74.898 40.539 73.062ZM77.7001 62.685C77.6701 62.385 77.4001 59.064 71.4901 59.205C69.0267 59.1653 66.5645 59.339 64.1311 59.724C61.7738 57.3492 59.7439 54.6706 58.0951 51.759C59.1339 48.7573 59.7626 45.629 59.9641 42.459C59.8771 38.859 59.0161 36.795 56.2561 36.825C53.4961 36.855 53.0941 39.27 53.4571 42.864C53.8126 45.2792 54.4833 47.6373 55.452 49.878C55.452 49.878 54.1771 53.847 52.4911 57.795C50.805 61.743 49.6531 63.813 49.6531 63.813C46.7212 64.7675 43.9613 66.1854 41.4781 68.013C39.0061 70.314 38.0011 72.081 39.3031 73.848C40.4251 75.372 44.3521 75.717 47.8621 71.118C49.727 68.7427 51.4308 66.2451 52.962 63.642C52.962 63.642 58.3141 62.175 59.9791 61.773C61.6441 61.371 63.6571 61.053 63.6571 61.053C63.6571 61.053 68.5441 65.97 73.2571 65.796C77.9701 65.622 77.7421 62.979 77.7121 62.691" fill="#DD2025"/>
  <path d="M71.8621 6.23096V23.85H88.7611L71.8621 6.23096Z" fill="#909090"/>
  <path d="M72.093 6V23.619H88.992L72.093 6Z" fill="#F4F4F4"/>
  <path d="M26.925 13.3711H23.004V27.7711H26.1V22.9171L26.784 22.9561C27.4457 22.9447 28.1012 22.8262 28.725 22.6051C29.2719 22.4169 29.775 22.12 30.204 21.7321C30.6372 21.3616 30.9783 20.8953 31.2 20.3701C31.5009 19.4956 31.6084 18.5662 31.515 17.6461C31.4963 16.9888 31.3811 16.3379 31.173 15.7141C30.9836 15.2638 30.7026 14.8579 30.3478 14.5222C29.9929 14.1865 29.5721 13.9283 29.112 13.7641C28.7124 13.6187 28.2994 13.5132 27.879 13.4491C27.5623 13.4002 27.2425 13.3742 26.922 13.3711M26.355 20.2531H26.088V15.8131H26.67C26.9256 15.7947 27.182 15.8339 27.4203 15.9279C27.6587 16.0219 27.8728 16.1682 28.047 16.3561C28.408 16.8392 28.6008 17.4271 28.596 18.0301C28.596 18.7681 28.596 19.4371 27.93 19.9081C27.4502 20.172 26.9041 20.2908 26.358 20.2501M37.368 13.3321C37.035 13.3321 36.711 13.3561 36.483 13.3651L35.778 13.3831H33.438V27.7831H36.192C37.2445 27.812 38.2924 27.6336 39.276 27.2581C40.0678 26.9441 40.7689 26.4378 41.316 25.7851C41.8481 25.1265 42.23 24.3596 42.435 23.5381C42.6707 22.6077 42.7857 21.6509 42.777 20.6911C42.8352 19.5576 42.7475 18.4213 42.516 17.3101C42.2964 16.4922 41.885 15.7384 41.316 15.1111C40.8696 14.6046 40.3231 14.196 39.711 13.9111C39.1854 13.6679 38.6324 13.4886 38.064 13.3771C37.838 13.3398 37.6091 13.3227 37.38 13.3261M36.834 25.1371H36.534V15.9451H36.573C37.1915 15.8739 37.8173 15.9855 38.373 16.2661C38.78 16.5911 39.1116 17.0005 39.345 17.4661C39.5969 17.9561 39.7421 18.4939 39.771 19.0441C39.798 19.7041 39.771 20.2441 39.771 20.6911C39.7832 21.206 39.7501 21.721 39.672 22.2301C39.5796 22.7528 39.4086 23.2585 39.165 23.7301C38.8893 24.1686 38.5168 24.538 38.076 24.8101C37.7059 25.0495 37.2676 25.1612 36.828 25.1281M52.059 13.3831H44.769V27.7831H47.853V22.0711H51.753V19.3951H47.853V16.0591H52.053V13.3831" fill="white"/>
</svg>