<svg width="24" height="24" viewBox="0 0 24 24" fill="none" xmlns="http://www.w3.org/2000/svg">
<path fill-rule="evenodd" clip-rule="evenodd" d="M23.4984 6.23251C23.2224 5.20009 22.4093 4.38675 21.3767 4.11077C19.505 3.60938 11.9999 3.60938 11.9999 3.60938C11.9999 3.60938 4.49498 3.60938 2.62334 4.11077C1.59071 4.38675 0.777578 5.20009 0.501593 6.23251C0 8.10435 0 12.0092 0 12.0092C0 12.0092 0 15.9143 0.501593 17.7859C0.777578 18.8184 1.59071 19.6319 2.62334 19.9077C4.49498 20.4093 11.9999 20.4093 11.9999 20.4093C11.9999 20.4093 19.505 20.4093 21.3767 19.9077C22.4093 19.6319 23.2224 18.8184 23.4984 17.7859C24 15.9143 24 12.0092 24 12.0092C24 12.0092 24 8.10435 23.4984 6.23251Z" fill="white"/>
<path fill-rule="evenodd" clip-rule="evenodd" d="M9.60004 15.6093L15.8351 12.0094L9.60004 8.40917V15.6093Z" fill="black"/>
</svg>
